<svg xmlns="http://www.w3.org/2000/svg" width="33" height="34" viewBox="0 0 33 34" fill="none">
  <path d="M24.2034 20.417C23.8719 20.2472 21.7168 19.2285 21.3852 19.0587C21.0536 18.8889 20.7221 18.8889 20.3905 19.2285C20.059 19.568 19.3959 20.5868 19.0643 20.9263C18.8986 21.2659 18.567 21.2659 18.2354 21.0961C17.075 20.5868 15.9146 19.9076 14.9199 19.0587C14.091 18.2097 13.2621 17.191 12.599 16.1723C12.4333 15.8327 12.599 15.4931 12.7648 15.3233C12.9306 15.1536 13.0964 14.814 13.4279 14.6442C13.5937 14.4744 13.7595 14.1348 13.7595 13.965C13.9253 13.7953 13.9253 13.4557 13.7595 13.2859C13.5937 13.1161 12.7648 11.0787 12.4333 10.2297C12.2675 9.0412 11.9359 9.0412 11.6044 9.0412H10.7755C10.4439 9.0412 9.94661 9.38077 9.78083 9.55056C8.78617 10.5693 8.28884 11.7578 8.28884 13.1161C8.45462 14.6442 8.95195 16.1723 9.94661 17.5306C11.7702 20.2472 14.091 22.4544 16.9092 23.8127C17.7381 24.1523 18.4012 24.4919 19.2301 24.6617C20.059 25.0012 20.8879 25.0012 21.8825 24.8315C23.043 24.6617 24.0376 23.8127 24.7007 22.794C25.0323 22.1149 25.0323 21.4357 24.8665 20.7566L24.2034 20.417ZM28.3478 4.96629C21.8825 -1.65543 11.4386 -1.65543 4.9733 4.96629C-0.331554 10.3995 -1.32621 18.7191 2.32087 25.3408L0 34L8.78617 31.623C11.2728 32.9813 13.9252 33.6604 16.5777 33.6604C25.6954 33.6604 32.9896 26.1898 32.9896 16.8514C33.1554 12.437 31.3318 8.19226 28.3478 4.96629ZM23.8719 28.7366C21.7168 30.0949 19.2301 30.9438 16.5777 30.9438C14.091 30.9438 11.7702 30.2647 9.61505 29.0762L9.11772 28.7366L3.97864 30.0949L5.30486 25.0012L4.9733 24.4919C0.99466 17.7004 2.98398 9.21099 9.44928 4.96629C15.9146 0.721598 24.2034 2.92884 28.1821 9.38077C32.1607 16.0025 30.3372 24.6617 23.8719 28.7366Z" fill="white"/>
</svg>
